<svg width="16" height="16" viewBox="0 0 16 16" fill="none" xmlns="http://www.w3.org/2000/svg">
<path d="M14.5676 15.7962L9.03896 10.2676C8.60017 10.6186 8.09557 10.8965 7.52515 11.1012C6.95473 11.306 6.34775 11.4084 5.7042 11.4084C4.10995 11.4084 2.76068 10.8563 1.65641 9.75198C0.552137 8.64771 0 7.29845 0 5.7042C0 4.10995 0.552137 2.76068 1.65641 1.65641C2.76068 0.552137 4.10995 0 5.7042 0C7.29845 0 8.64771 0.552137 9.75198 1.65641C10.8563 2.76068 11.4084 4.10995 11.4084 5.7042C11.4084 6.34775 11.306 6.95473 11.1012 7.52515C10.8965 8.09557 10.6186 8.60017 10.2676 9.03896L15.7962 14.5676L14.5676 15.7962ZM5.7042 9.65325C6.80116 9.65325 7.73357 9.26932 8.50145 8.50145C9.26932 7.73357 9.65325 6.80116 9.65325 5.7042C9.65325 4.60723 9.26932 3.67482 8.50145 2.90695C7.73357 2.13907 6.80116 1.75514 5.7042 1.75514C4.60723 1.75514 3.67482 2.13907 2.90695 2.90695C2.13907 3.67482 1.75514 4.60723 1.75514 5.7042C1.75514 6.80116 2.13907 7.73357 2.90695 8.50145C3.67482 9.26932 4.60723 9.65325 5.7042 9.65325Z" fill="#BD8A3C"/>
</svg>
